<svg width="32" height="32" viewBox="0 0 32 32" fill="none" xmlns="http://www.w3.org/2000/svg">
<path d="M16 3C13.4288 3 10.9154 3.76244 8.77759 5.1909C6.63975 6.61935 4.97351 8.64968 3.98957 11.0251C3.00563 13.4006 2.74819 16.0144 3.2498 18.5362C3.75141 21.0579 4.98953 23.3743 6.80762 25.1924C8.6257 27.0105 10.9421 28.2486 13.4638 28.7502C15.9856 29.2518 18.5995 28.9944 20.9749 28.0104C23.3503 27.0265 25.3807 25.3603 26.8091 23.2224C28.2376 21.0846 29 18.5712 29 16C28.9934 12.5542 27.6216 9.25145 25.1851 6.81491C22.7486 4.37837 19.4458 3.00661 16 3ZM21 17H13.4125L15.95 19.5375C16.137 19.725 16.242 19.979 16.242 20.2437C16.242 20.5085 16.137 20.7625 15.95 20.95C15.8569 21.0437 15.7457 21.1175 15.6233 21.1669C15.5008 21.2163 15.3695 21.2403 15.2375 21.2375C15.1074 21.2401 14.9781 21.2159 14.8576 21.1665C14.7372 21.117 14.6283 21.0433 14.5375 20.95L10.3 16.7125C10.2058 16.6188 10.1295 16.5087 10.075 16.3875C9.9749 16.1389 9.9749 15.8611 10.075 15.6125C10.1295 15.4913 10.2058 15.3812 10.3 15.2875L14.5375 11.05C14.7277 10.8776 14.977 10.785 15.2336 10.7914C15.4902 10.7977 15.7346 10.9024 15.9161 11.0839C16.0976 11.2655 16.2023 11.5098 16.2087 11.7664C16.215 12.0231 16.1224 12.2723 15.95 12.4625L13.4125 15H21C21.2652 15 21.5196 15.1054 21.7071 15.2929C21.8946 15.4804 22 15.7348 22 16C22 16.2652 21.8946 16.5196 21.7071 16.7071C21.5196 16.8946 21.2652 17 21 17Z" fill="#123291"/>
</svg>
