<svg width="110" height="110" viewBox="0 0 110 110" fill="none" xmlns="http://www.w3.org/2000/svg">
<circle cx="55" cy="55" r="55" fill="#123291"/>
<g clip-path="url(#clip0_488_1146)">
<path d="M45.257 72.9841C47.9931 75.7995 52.4862 75.6491 55.0278 72.663L78.3612 45.275C80.7778 42.4391 80.4862 38.141 77.7084 35.6741C77.0556 35.0865 76.2917 34.6423 75.4514 34.3553C74.6181 34.0683 73.7292 33.959 72.8542 34.0205C71.9723 34.082 71.1181 34.3211 70.3334 34.7243C69.5487 35.1275 68.8542 35.6741 68.2987 36.3506L50.0139 57.8278L41.4167 49.6756C40.8126 49.0401 40.0834 48.5345 39.2709 48.1928C38.4584 47.8443 37.5903 47.6666 36.7084 47.6598C35.8264 47.6598 34.9514 47.8306 34.1389 48.1655C33.3264 48.5071 32.5903 49.006 31.9792 49.6346C30.7153 50.9261 30.007 52.6413 30.0001 54.4316C29.9931 56.222 30.6806 57.9508 31.9306 59.2491L45.257 72.9773V72.9841Z" fill="white"/>
</g>
<defs>
<clipPath id="clip0_488_1146">
<rect width="50" height="41" fill="white" transform="translate(30 34)"/>
</clipPath>
</defs>
</svg>
