<svg width="110" height="110" viewBox="0 0 110 110" fill="none" xmlns="http://www.w3.org/2000/svg">
<circle cx="55" cy="55" r="45" fill="white"/>
<path d="M55 0C24.6278 0 0 24.6278 0 55C0 85.3722 24.6278 110 55 110C85.3722 110 110 85.3722 110 55C110 24.6278 85.3722 0 55 0ZM55 90.9944C50.5756 90.9944 47.0067 87.4133 47.0067 83.0011C47.0067 78.5889 50.5878 75.0078 55 75.0078C59.4122 75.0078 63.0056 78.5889 63.0056 83.0011C63.0056 87.4133 59.4244 90.9944 55 90.9944ZM63.6778 29.1622L60.5978 65.4011C60.5978 68.4933 58.0922 70.9989 55 70.9989C51.9078 70.9989 49.4022 68.4933 49.4022 65.4011L46.3222 29.1622C46.2489 28.7222 46.2 28.27 46.2 27.8056C46.2 22.9411 50.1356 19.0056 55 19.0056C59.8644 19.0056 63.8 22.9411 63.8 27.8056C63.8 28.27 63.7511 28.7222 63.6778 29.1622Z" fill="#FF7678"/>
</svg>
